#Comment line ignore any data following # character 
#Hierarchical Translation and Rotation (.htr) file 
[Header]	
#Header keywords are followed by a single value 
FileType HTR		#Single word string
DataType HTRS		#Translation followed by rotation and scale data
FileVersion 1		#integer
NumSegments 84		#integer
NumFrames 2		#integer
DataFrameRate 30		#integer, data frame rate in this file
EulerRotationOrder ZYX
CalibrationUnits mm
RotationUnits Degrees
GlobalAxisofGravity Y
BoneLengthAxis Y
ScaleFactor 1.00
[SegmentNames&Hierarchy]
#CHILD	PARENT
MASTER GLOBAL
root MASTER
chest root
L_mid_tent01 root
R_mid_tent01 root
spine01 root
Bip01_Neck chest
L_humerus chest
R_humerus chest
weapon_bone chest
Bip01_Head Bip01_Neck
eye_left_bone Bip01_Head
eye_right_bone Bip01_Head
L_forearm L_humerus
L_front_hand L_forearm
L_weapon_bone L_forearm
L_front_hand01_01 L_front_hand
L_front_hand02_01 L_front_hand
L_front_hand03_01 L_front_hand
L_front_hand01_02 L_front_hand01_01
L_front_hand02_02 L_front_hand02_01
L_front_hand03_02 L_front_hand03_01
R_forearm R_humerus
R_front_hand R_forearm
R_weapon_bone R_forearm
R_front_hand01_01 R_front_hand
R_front_hand02_01 R_front_hand
R_front_hand03_01 R_front_hand
R_front_hand01_02 R_front_hand01_01
R_front_hand02_02 R_front_hand02_01
R_front_hand03_02 R_front_hand03_01
null_rope01_connect L_mid_tent01
Rope1_Seg01 null_rope01_connect
Rope1_Seg02 Rope1_Seg01
Rope1_Seg03 Rope1_Seg02
Rope1_Seg04 Rope1_Seg03
Rope1_Seg05 Rope1_Seg04
Rope1_Seg06 Rope1_Seg05
Rope1_Seg07 Rope1_Seg06
Rope1_Seg09 Rope1_Seg07
L_mid_hand01 Rope1_Seg09
L_mid_hand02 Rope1_Seg09
L_mid_hand03 Rope1_Seg09
null_rope02_connect R_mid_tent01
Rope2_Seg01 null_rope02_connect
Rope2_Seg02 Rope2_Seg01
Rope2_Seg03 Rope2_Seg02
Rope2_Seg04 Rope2_Seg03
Rope2_Seg05 Rope2_Seg04
Rope2_Seg06 Rope2_Seg05
Rope2_Seg07 Rope2_Seg06
Rope2_Seg09 Rope2_Seg07
R_mid_hand01 Rope2_Seg09
R_mid_hand02 Rope2_Seg09
R_mid_hand03 Rope2_Seg09
spine02 spine01
spine03 spine02
pelvis spine03
null_rope03_connect pelvis
null_rope04_connect pelvis
Rope3_Seg01 null_rope03_connect
Rope3_Seg02 Rope3_Seg01
Rope3_Seg03 Rope3_Seg02
Rope3_Seg04 Rope3_Seg03
Rope3_Seg05 Rope3_Seg04
Rope3_Seg06 Rope3_Seg05
Rope3_Seg07 Rope3_Seg06
Rope3_Seg08 Rope3_Seg07
Rope3_Seg09 Rope3_Seg08
R_rear_hand01 Rope3_Seg09
R_rear_hand02 Rope3_Seg09
R_rear_hand03 Rope3_Seg09
Rope4_Seg01 null_rope04_connect
Rope4_Seg02 Rope4_Seg01
Rope4_Seg03 Rope4_Seg02
Rope4_Seg04 Rope4_Seg03
Rope4_Seg05 Rope4_Seg04
Rope4_Seg06 Rope4_Seg05
Rope4_Seg07 Rope4_Seg06
Rope4_Seg08 Rope4_Seg07
Rope4_Seg09 Rope4_Seg08
L_rear_hand01 Rope4_Seg09
L_rear_hand02 Rope4_Seg09
L_rear_hand03 Rope4_Seg09
[BasePosition]
#SegmentName Tx, Ty, Tz, Rx, Ry, Rz, BoneLength
MASTER 0.000000 0.000000 0.000000 -90.000000 0.000000 0.000000 10.000000 
root 0.000000 0.000000 0.000000 0.000000 0.000000 0.000000 10.000000 
chest 0.000000 0.000000 0.000000 0.000000 0.000000 0.000000 10.000000 
L_mid_tent01 0.000000 0.000000 0.000000 0.000000 0.000000 0.000000 10.000000 
R_mid_tent01 0.000000 0.000000 0.000000 0.000000 0.000000 0.000000 10.000000 
spine01 0.000000 0.000000 0.000000 0.000000 0.000000 0.000000 10.000000 
Bip01_Neck 0.000000 0.000000 0.000000 0.000000 0.000000 0.000000 10.000000 
L_humerus 0.000000 0.000000 0.000000 0.000000 0.000000 0.000000 10.000000 
R_humerus 0.000000 0.000000 0.000000 0.000000 0.000000 0.000000 10.000000 
weapon_bone 0.000000 0.000000 0.000000 0.000000 0.000000 0.000000 10.000000 
Bip01_Head 0.000000 0.000000 0.000000 0.000000 0.000000 0.000000 10.000000 
eye_left_bone 0.000000 0.000000 0.000000 0.000000 0.000000 0.000000 10.000000 
eye_right_bone 0.000000 0.000000 0.000000 0.000000 0.000000 0.000000 10.000000 
L_forearm 0.000000 0.000000 0.000000 0.000000 0.000000 0.000000 10.000000 
L_front_hand 0.000000 0.000000 0.000000 0.000000 0.000000 0.000000 10.000000 
L_weapon_bone 0.000000 0.000000 0.000000 0.000000 0.000000 0.000000 10.000000 
L_front_hand01_01 0.000000 0.000000 0.000000 0.000000 0.000000 0.000000 10.000000 
L_front_hand02_01 0.000000 0.000000 0.000000 0.000000 0.000000 0.000000 10.000000 
L_front_hand03_01 0.000000 0.000000 0.000000 0.000000 0.000000 0.000000 10.000000 
L_front_hand01_02 0.000000 0.000000 0.000000 0.000000 0.000000 0.000000 10.000000 
L_front_hand02_02 0.000000 0.000000 0.000000 0.000000 0.000000 0.000000 10.000000 
L_front_hand03_02 0.000000 0.000000 0.000000 0.000000 0.000000 0.000000 10.000000 
R_forearm 0.000000 0.000000 0.000000 0.000000 0.000000 0.000000 10.000000 
R_front_hand 0.000000 0.000000 0.000000 0.000000 0.000000 0.000000 10.000000 
R_weapon_bone 0.000000 0.000000 0.000000 0.000000 0.000000 0.000000 10.000000 
R_front_hand01_01 0.000000 0.000000 0.000000 0.000000 0.000000 0.000000 10.000000 
R_front_hand02_01 0.000000 0.000000 0.000000 0.000000 0.000000 0.000000 10.000000 
R_front_hand03_01 0.000000 0.000000 0.000000 0.000000 0.000000 0.000000 10.000000 
R_front_hand01_02 0.000000 0.000000 0.000000 0.000000 0.000000 0.000000 10.000000 
R_front_hand02_02 0.000000 0.000000 0.000000 0.000000 0.000000 0.000000 10.000000 
R_front_hand03_02 0.000000 0.000000 0.000000 0.000000 0.000000 0.000000 10.000000 
null_rope01_connect 0.000000 0.000000 0.000000 0.000000 0.000000 0.000000 10.000000 
Rope1_Seg01 0.000000 0.000000 0.000000 0.000000 0.000000 0.000000 10.000000 
Rope1_Seg02 0.000000 0.000000 0.000000 0.000000 0.000000 0.000000 10.000000 
Rope1_Seg03 0.000000 0.000000 0.000000 0.000000 0.000000 0.000000 10.000000 
Rope1_Seg04 0.000000 0.000000 0.000000 0.000000 0.000000 0.000000 10.000000 
Rope1_Seg05 0.000000 0.000000 0.000000 0.000000 0.000000 0.000000 10.000000 
Rope1_Seg06 0.000000 0.000000 0.000000 0.000000 0.000000 0.000000 10.000000 
Rope1_Seg07 0.000000 0.000000 0.000000 0.000000 0.000000 0.000000 10.000000 
Rope1_Seg09 0.000000 0.000000 0.000000 0.000000 0.000000 0.000000 10.000000 
L_mid_hand01 0.000000 0.000000 0.000000 0.000000 0.000000 0.000000 10.000000 
L_mid_hand02 0.000000 0.000000 0.000000 0.000000 0.000000 0.000000 10.000000 
L_mid_hand03 0.000000 0.000000 0.000000 0.000000 0.000000 0.000000 10.000000 
null_rope02_connect 0.000000 0.000000 0.000000 0.000000 0.000000 0.000000 10.000000 
Rope2_Seg01 0.000000 0.000000 0.000000 0.000000 0.000000 0.000000 10.000000 
Rope2_Seg02 0.000000 0.000000 0.000000 0.000000 0.000000 0.000000 10.000000 
Rope2_Seg03 0.000000 0.000000 0.000000 0.000000 0.000000 0.000000 10.000000 
Rope2_Seg04 0.000000 0.000000 0.000000 0.000000 0.000000 0.000000 10.000000 
Rope2_Seg05 0.000000 0.000000 0.000000 0.000000 0.000000 0.000000 10.000000 
Rope2_Seg06 0.000000 0.000000 0.000000 0.000000 0.000000 0.000000 10.000000 
Rope2_Seg07 0.000000 0.000000 0.000000 0.000000 0.000000 0.000000 10.000000 
Rope2_Seg09 0.000000 0.000000 0.000000 0.000000 0.000000 0.000000 10.000000 
R_mid_hand01 0.000000 0.000000 0.000000 0.000000 0.000000 0.000000 10.000000 
R_mid_hand02 0.000000 0.000000 0.000000 0.000000 0.000000 0.000000 10.000000 
R_mid_hand03 0.000000 0.000000 0.000000 0.000000 0.000000 0.000000 10.000000 
spine02 0.000000 0.000000 0.000000 0.000000 0.000000 0.000000 10.000000 
spine03 0.000000 0.000000 0.000000 0.000000 0.000000 0.000000 10.000000 
pelvis 0.000000 0.000000 0.000000 0.000000 0.000000 0.000000 10.000000 
null_rope03_connect 0.000000 0.000000 0.000000 0.000000 0.000000 0.000000 10.000000 
null_rope04_connect 0.000000 0.000000 0.000000 0.000000 0.000000 0.000000 10.000000 
Rope3_Seg01 0.000000 0.000000 0.000000 0.000000 0.000000 0.000000 10.000000 
Rope3_Seg02 0.000000 0.000000 0.000000 0.000000 0.000000 0.000000 10.000000 
Rope3_Seg03 0.000000 0.000000 0.000000 0.000000 0.000000 0.000000 10.000000 
Rope3_Seg04 0.000000 0.000000 0.000000 0.000000 0.000000 0.000000 10.000000 
Rope3_Seg05 0.000000 0.000000 0.000000 0.000000 0.000000 0.000000 10.000000 
Rope3_Seg06 0.000000 0.000000 0.000000 0.000000 0.000000 0.000000 10.000000 
Rope3_Seg07 0.000000 0.000000 0.000000 0.000000 0.000000 0.000000 10.000000 
Rope3_Seg08 0.000000 0.000000 0.000000 0.000000 0.000000 0.000000 10.000000 
Rope3_Seg09 0.000000 0.000000 0.000000 0.000000 0.000000 0.000000 10.000000 
R_rear_hand01 0.000000 0.000000 0.000000 0.000000 0.000000 0.000000 10.000000 
R_rear_hand02 0.000000 0.000000 0.000000 0.000000 0.000000 0.000000 10.000000 
R_rear_hand03 0.000000 0.000000 0.000000 0.000000 0.000000 0.000000 10.000000 
Rope4_Seg01 0.000000 0.000000 0.000000 0.000000 0.000000 0.000000 10.000000 
Rope4_Seg02 0.000000 0.000000 0.000000 0.000000 0.000000 0.000000 10.000000 
Rope4_Seg03 0.000000 0.000000 0.000000 0.000000 0.000000 0.000000 10.000000 
Rope4_Seg04 0.000000 0.000000 0.000000 0.000000 0.000000 0.000000 10.000000 
Rope4_Seg05 0.000000 0.000000 0.000000 0.000000 0.000000 0.000000 10.000000 
Rope4_Seg06 0.000000 0.000000 0.000000 0.000000 0.000000 0.000000 10.000000 
Rope4_Seg07 0.000000 0.000000 0.000000 0.000000 0.000000 0.000000 10.000000 
Rope4_Seg08 0.000000 0.000000 0.000000 0.000000 0.000000 0.000000 10.000000 
Rope4_Seg09 0.000000 0.000000 0.000000 0.000000 0.000000 0.000000 10.000000 
L_rear_hand01 0.000000 0.000000 0.000000 0.000000 0.000000 0.000000 10.000000 
L_rear_hand02 0.000000 0.000000 0.000000 0.000000 0.000000 0.000000 10.000000 
L_rear_hand03 0.000000 0.000000 0.000000 0.000000 0.000000 0.000000 10.000000 
#Beginning of Data. Separated by tabs
#Fr	Tx	Ty	Tz	Rx	Ry	Rz	SF
[MASTER]
31 0.000000 0.000000 0.000000 0.001660 0.001660 0.001660 0.000000
32 0.000000 0.000000 0.000000 0.001660 0.001660 0.001660 0.000000
[root]
31 -13.889206 -62.797272 1499.783447 -91.655228 -27.344646 -90.162560 1501.161743
32 -14.491774 -62.803268 1499.842407 -91.648422 -27.440853 -90.158249 1501.226685
[chest]
31 -84.512650 -34.090519 0.000000 -4.883928 1.981831 -178.071045 91.129311
32 -84.512650 -34.090519 0.000000 -4.883928 1.981831 -178.071045 91.129311
[L_mid_tent01]
31 27.299524 22.177526 -249.917984 4.476181 36.166656 82.384476 252.380875
32 27.299522 22.177536 -249.917984 4.331360 36.182823 82.139923 252.380875
[R_mid_tent01]
31 23.228794 24.509907 226.238495 159.222000 -47.460384 89.267197 228.744751
32 23.228794 24.509907 226.238495 159.492767 -47.371105 88.960907 228.744751
[spine01]
31 -0.361383 -0.195265 0.000000 0.840989 0.446373 15.483044 0.410763
32 -0.361383 -0.195265 0.000000 0.840989 0.446373 15.483044 0.410763
[Bip01_Neck]
31 165.484543 71.581718 0.000119 175.896118 1.177290 24.871183 180.302734
32 165.484543 71.581718 0.000119 175.896118 1.177290 24.871183 180.302734
[L_humerus]
31 -13.983130 -135.272980 -120.471481 -175.938797 75.354187 -85.840675 181.680161
32 -13.983130 -135.272980 -120.471481 -175.938812 75.354187 -85.840691 181.680161
[R_humerus]
31 -13.983309 -135.273102 125.287651 -151.401718 -64.595802 -126.359894 184.909012
32 -13.983309 -135.273102 125.287651 -151.401703 -64.595802 -126.359894 184.909012
[weapon_bone]
31 235.964890 -300.705902 0.000000 0.000000 -89.951546 -128.212341 382.234833
32 235.964890 -300.705902 0.000000 0.000000 -89.951546 -128.212341 382.234833
[Bip01_Head]
31 261.355835 108.959427 -2.864212 2.248029 5.843377 -62.458344 283.173523
32 261.355835 108.959442 -2.864209 2.248029 5.843377 -62.458344 283.173523
[eye_left_bone]
31 -24.626970 125.451866 -64.772606 0.000000 -90.000000 -99.840431 143.318359
32 -24.626970 125.451866 -64.772606 0.000000 -90.000000 -99.840431 143.318359
[eye_right_bone]
31 -24.626970 125.451866 64.327362 0.000000 -89.960434 80.159386 143.117676
32 -24.626970 125.451866 64.327362 0.000000 -89.960434 80.159386 143.117676
[L_forearm]
31 322.776093 0.000000 -0.000119 0.000071 -0.002346 -93.445839 322.776093
32 322.776093 0.000000 -0.000119 0.000071 -0.002346 -93.445839 322.776093
[L_front_hand]
31 241.149185 -0.042021 -3.300071 -178.667953 -1.835447 -27.422342 241.171753
32 241.149185 -0.042021 -3.300071 -178.667953 -1.835447 -27.422350 241.171753
[L_weapon_bone]
31 156.183838 0.000000 0.000000 0.001660 0.001660 0.001660 156.183838
32 156.183838 0.000000 0.000000 0.001660 0.001660 0.001660 156.183838
[L_front_hand01_01]
31 86.095154 20.947098 -0.655860 0.405581 -0.442310 -4.619928 88.609184
32 86.095154 20.947098 -0.655860 -0.366594 -0.477154 75.385574 88.609184
[L_front_hand02_01]
31 86.935165 -11.437475 24.513514 116.959465 3.630318 1.495198 91.046425
32 86.935165 -11.437475 24.513514 154.403519 -59.888931 -61.371990 91.046425
[L_front_hand03_01]
31 86.637497 -14.123976 -20.424902 -118.420090 -4.655809 -0.152795 90.126129
32 86.637497 -14.123976 -20.424902 -153.913849 58.118122 -62.702866 90.126129
[L_front_hand01_02]
31 71.020905 -0.000179 0.000030 0.001534 0.001777 -8.378850 71.020905
32 71.020905 -0.000179 0.000030 0.001534 0.001777 -8.378850 71.020905
[L_front_hand02_02]
31 71.020927 -0.000119 0.000060 0.001534 0.001777 -8.378850 71.020927
32 71.020927 -0.000119 0.000060 0.001534 0.001777 -8.378850 71.020927
[L_front_hand03_02]
31 71.020905 -0.000060 0.000060 0.001534 0.001777 -8.378850 71.020905
32 71.020905 -0.000060 0.000060 0.001534 0.001777 -8.378850 71.020905
[R_forearm]
31 322.776428 -0.000060 0.000030 0.213295 0.003866 -91.459335 322.776428
32 322.776428 -0.000060 0.000030 0.213295 0.003866 -91.459335 322.776428
[R_front_hand]
31 238.847015 -0.006795 2.210259 -1.531694 0.790216 -51.443062 238.857239
32 238.847015 -0.006795 2.210259 -1.531694 0.790216 -51.443054 238.857239
[R_weapon_bone]
31 155.664093 0.002503 -0.000030 0.003487 0.001180 -90.988930 155.664078
32 155.664093 0.002503 -0.000030 0.003487 0.001180 -90.988930 155.664078
[R_front_hand01_01]
31 87.624611 14.231146 22.918642 -116.960205 3.496175 -1.323883 91.683487
32 87.624611 14.231146 22.918642 -154.633499 -59.950619 61.746044 91.683487
[R_front_hand02_01]
31 89.356956 14.367283 -19.491137 118.419624 -4.256595 0.610096 92.579636
32 89.356956 14.367283 -19.491137 154.602661 58.302849 63.744389 92.579636
[R_front_hand03_01]
31 87.286232 -22.307278 -0.143439 -0.387967 -0.231466 4.231439 90.091743
32 87.286232 -22.307278 -0.143439 0.162155 -0.423168 -75.767921 90.091743
[R_front_hand01_02]
31 71.020905 0.000060 0.000119 0.001777 0.001534 8.377220 71.020905
32 71.020905 0.000060 0.000119 0.001777 0.001534 8.377220 71.020905
[R_front_hand02_02]
31 71.020844 -0.000030 -0.000119 0.001777 0.001534 8.377220 71.020836
32 71.020844 -0.000030 -0.000119 0.001777 0.001534 8.377220 71.020836
[R_front_hand03_02]
31 71.020905 0.000000 0.000030 0.001777 0.001534 8.377220 71.020905
32 71.020905 0.000000 0.000030 0.001777 0.001534 8.377220 71.020905
[null_rope01_connect]
31 328.732483 0.000000 -0.000238 -137.903427 -51.885979 174.425690 328.732483
32 328.732483 0.000000 -0.000238 -137.792450 -51.896206 174.623276 328.732483
[Rope1_Seg01]
31 0.000025 0.000000 0.000000 86.015778 45.700333 101.361046 0.000025
32 0.000021 0.000000 0.000000 88.986214 43.573936 104.743591 0.000021
[Rope1_Seg02]
31 139.999863 -0.000179 0.000000 -0.270476 -4.770028 4.984268 139.999863
32 139.999863 -0.000179 0.000000 -0.568331 -5.405453 3.678167 139.999863
[Rope1_Seg03]
31 139.999924 0.000060 -0.000060 -0.442204 -5.505015 5.516153 139.999924
32 139.999924 0.000060 -0.000060 -1.209028 -6.762500 3.710355 139.999924
[Rope1_Seg04]
31 139.999924 -0.000060 -0.000119 -0.869960 -7.366798 7.357918 139.999924
32 139.999924 -0.000060 -0.000119 -2.731835 -9.465706 4.577356 139.999924
[Rope1_Seg05]
31 139.999832 0.000119 -0.000060 -0.202486 -9.002498 11.232488 139.999832
32 139.999832 0.000119 -0.000060 0.872824 -9.090910 13.234002 139.999832
[Rope1_Seg06]
31 139.999954 0.000119 -0.000060 0.497115 -4.236761 5.488815 139.999954
32 139.999954 0.000119 -0.000060 2.173455 -3.793220 6.714185 139.999954
[Rope1_Seg07]
31 139.999985 0.000060 0.000000 0.361305 -2.338138 2.987411 139.999985
32 139.999985 0.000060 0.000000 1.181271 -2.101923 3.408627 139.999985
[Rope1_Seg09]
31 121.602913 0.000119 -0.000089 -89.790619 -1.359656 0.847385 121.602913
32 121.602913 0.000119 -0.000089 -89.790619 -1.359656 0.847385 121.602913
[L_mid_hand01]
31 103.859421 1.038730 8.195221 117.570618 -57.606705 -24.323307 104.187431
32 103.859421 1.038730 8.195221 116.655426 -56.463623 -23.235823 104.187431
[L_mid_hand02]
31 105.572853 -4.139662 -10.864139 -158.641541 40.046619 -58.112041 106.211075
32 105.572853 -4.139662 -10.864139 -157.644394 39.564312 -56.555031 106.211075
[L_mid_hand03]
31 104.641464 17.579376 -3.913581 -9.642483 16.175797 62.516468 106.179977
32 104.641464 17.579376 -3.913581 -10.010305 15.954721 61.194363 106.179977
[null_rope02_connect]
31 328.732849 0.000179 -0.000119 -124.107040 40.800621 18.936340 328.732849
32 328.732849 0.000179 -0.000119 -123.981079 40.949810 18.779076 328.732849
[Rope2_Seg01]
31 0.000095 0.000153 0.000064 -56.152550 28.031393 30.196564 0.000191
32 0.000095 0.000153 0.000066 -55.513336 28.217106 31.954746 0.000192
[Rope2_Seg02]
31 139.999741 -0.000060 -0.000119 -1.194782 -3.011161 4.452420 139.999756
32 139.999741 -0.000060 -0.000119 -1.054605 -2.766369 4.173895 139.999756
[Rope2_Seg03]
31 140.000107 0.000030 0.000000 -1.572205 -5.284875 7.536331 140.000107
32 140.000107 0.000030 0.000000 -1.384323 -4.805830 7.019337 140.000107
[Rope2_Seg04]
31 139.999802 0.000000 -0.000060 -2.264844 -6.905909 21.905367 139.999802
32 139.999802 0.000000 -0.000060 -2.024824 -5.893615 20.475767 139.999802
[Rope2_Seg05]
31 139.999985 -0.000060 0.000119 -0.347022 -23.874712 25.710117 139.999985
32 139.999985 -0.000060 0.000119 -0.483918 -23.880260 26.642321 139.999985
[Rope2_Seg06]
31 139.999893 -0.000030 -0.000119 -19.057432 -21.871202 -13.836070 139.999893
32 139.999893 -0.000030 -0.000119 -19.048380 -22.510576 -13.915807 139.999893
[Rope2_Seg07]
31 139.999893 0.000060 -0.000060 -6.608751 -4.843163 -4.127588 139.999893
32 139.999893 0.000060 -0.000060 -6.246337 -4.739017 -3.845095 139.999893
[Rope2_Seg09]
31 121.338966 0.000089 -0.000060 55.304573 -0.954923 -1.285755 121.338966
32 121.338966 0.000089 -0.000060 55.885967 -0.939384 -1.297003 121.338966
[R_mid_hand01]
31 104.680779 11.144459 -10.335981 -22.157661 43.103577 61.934647 105.778534
32 104.680779 11.144459 -10.335981 -22.957108 42.748352 60.766499 105.778534
[R_mid_hand02]
31 104.070427 2.443552 8.231699 57.446217 -62.548325 30.067354 104.424065
32 104.070427 2.443552 8.231699 58.377838 -61.761059 29.013254 104.424065
[R_mid_hand03]
31 106.028137 -11.221827 -5.996406 -175.325638 15.122784 -69.887260 106.788818
32 106.028137 -11.221827 -5.996406 -175.076889 15.047474 -68.930901 106.788818
[spine02]
31 129.756927 0.001550 0.000119 -0.245322 -4.052060 -4.355547 129.756927
32 129.756927 0.001550 0.000119 -0.245322 -4.052060 -4.355547 129.756927
[spine03]
31 78.613808 0.087198 -4.898803 0.369659 4.260734 -4.885720 78.766342
32 78.613808 0.087186 -4.898802 0.369658 4.260732 -4.885719 78.766342
[pelvis]
31 169.435242 0.051022 0.000000 -0.010007 -0.191417 -1.897554 169.435257
32 169.435242 0.051022 0.000000 -0.010007 -0.191417 -1.897554 169.435257
[null_rope03_connect]
31 -1.257226 -2.466202 137.391083 -97.085281 -88.959953 -149.890488 137.418976
32 -1.257226 -2.466202 137.391083 -96.682343 -88.967888 -150.200378 137.418976
[null_rope04_connect]
31 -1.259640 -2.480268 -137.844437 -97.085281 -88.959953 -149.890488 137.872513
32 -1.259640 -2.480268 -137.844437 -96.682343 -88.967888 -150.200378 137.872513
[Rope3_Seg01]
31 0.000010 0.000006 -0.000025 -168.115097 -32.640717 -20.303284 0.000028
32 0.000010 0.000005 -0.000021 -165.929199 -32.510292 -22.394438 0.000024
[Rope3_Seg02]
31 139.999924 -0.000119 0.000060 -52.378254 2.758378 -27.586832 139.999924
32 139.999924 -0.000119 0.000060 -50.971313 2.292487 -28.514677 139.999924
[Rope3_Seg03]
31 139.999924 -0.000119 0.000119 -37.755825 22.673527 -6.320761 139.999924
32 139.999924 -0.000119 0.000119 -42.499348 24.805056 -9.016032 139.999924
[Rope3_Seg04]
31 139.999924 0.000119 0.000000 -20.652760 22.468737 -2.632680 139.999924
32 139.999924 0.000119 0.000000 -21.006119 24.754419 -2.851677 139.999924
[Rope3_Seg05]
31 139.999924 -0.000238 0.000060 -18.480810 43.082069 -2.744100 139.999924
32 139.999924 -0.000238 0.000060 -15.326381 40.384735 -1.574208 139.999924
[Rope3_Seg06]
31 139.999893 -0.000119 -0.000060 -0.003669 17.072964 4.763533 139.999893
32 139.999893 -0.000119 -0.000060 -0.059762 14.985968 3.895376 139.999893
[Rope3_Seg07]
31 139.999771 0.000060 -0.000119 0.896000 6.359854 2.097330 139.999771
32 139.999771 0.000060 -0.000119 0.803859 6.075597 1.862055 139.999771
[Rope3_Seg08]
31 139.999985 -0.000060 0.000000 0.852042 3.258887 1.020426 139.999985
32 139.999985 -0.000060 0.000000 0.799051 3.165981 0.924229 139.999985
[Rope3_Seg09]
31 90.185997 -0.000179 -0.000060 89.795311 -1.358474 -0.848592 90.185997
32 90.185997 -0.000179 -0.000060 89.795311 -1.358474 -0.848592 90.185997
[R_rear_hand01]
31 103.366196 -6.073594 -10.757982 -173.183029 23.761440 -62.873489 104.101845
32 103.366196 -6.073594 -10.757982 -172.703766 23.626045 -61.678352 104.101845
[R_rear_hand02]
31 100.509819 12.039542 -7.992327 -19.797289 34.016014 60.262615 101.543350
32 100.509819 12.039542 -7.992327 -20.492247 33.636757 59.013573 101.543350
[R_rear_hand03]
31 101.539970 5.215704 5.435467 77.791870 -62.063267 14.685542 101.819031
32 101.539970 5.215704 5.435467 78.216591 -60.982544 14.202851 101.819031
[Rope4_Seg01]
31 -0.000024 -0.000083 -0.000140 25.699709 -28.154594 -60.898693 0.000164
32 -0.000025 -0.000088 -0.000142 22.645781 -29.210451 -57.366356 0.000169
[Rope4_Seg02]
31 139.999985 0.000060 0.000119 -49.288277 -68.313896 75.643677 139.999985
32 139.999985 0.000060 0.000119 -47.732723 -72.009384 69.553329 139.999985
[Rope4_Seg03]
31 139.999924 0.000000 -0.000238 25.818083 -32.417259 14.194791 139.999924
32 139.999924 0.000000 -0.000238 34.811367 -38.418156 14.367493 139.999924
[Rope4_Seg04]
31 139.999985 0.000000 0.000119 17.345797 -1.133928 20.193451 139.999985
32 139.999985 0.000000 0.000119 18.228348 3.173872 22.013039 139.999985
[Rope4_Seg05]
31 139.999802 -0.000060 -0.000119 13.614546 10.515855 31.603081 139.999802
32 139.999802 -0.000060 -0.000119 11.567329 16.147532 28.603598 139.999802
[Rope4_Seg06]
31 139.999924 0.000000 0.000060 1.969874 6.884976 13.096224 139.999924
32 139.999924 0.000000 0.000060 1.274804 7.325745 10.376064 139.999924
[Rope4_Seg07]
31 139.999802 0.000000 0.000000 0.196633 3.359492 6.304216 139.999802
32 139.999802 0.000000 0.000000 0.119316 3.784367 5.356743 139.999802
[Rope4_Seg08]
31 139.999924 0.000000 0.000119 -1.641208 1.827193 3.418989 139.999924
32 139.999924 0.000000 0.000119 -1.637339 2.077352 2.940499 139.999924
[Rope4_Seg09]
31 90.185791 0.000060 0.000060 -135.615601 2.225816 0.851109 90.185791
32 90.185791 0.000060 0.000060 -135.615601 2.225816 0.851109 90.185791
[L_rear_hand01]
31 101.696655 -8.392275 -7.654577 -19.915020 -33.950905 119.950104 102.329041
32 101.696655 -8.392275 -7.654577 -19.915020 -33.950905 119.950104 102.329041
[L_rear_hand02]
31 102.726799 -1.568258 5.773216 77.862244 61.878525 165.399200 102.900848
32 102.726799 -1.568258 5.773216 77.862221 61.878510 165.399200 102.900848
[L_rear_hand03]
31 104.552910 9.721220 -10.420293 -173.099182 -23.740307 -117.327896 105.519653
32 104.552910 9.721220 -10.420293 -173.099182 -23.740307 -117.327896 105.519653
